<svg xmlns="http://www.w3.org/2000/svg" xmlns:xlink="http://www.w3.org/1999/xlink" width="1355" height="1563" viewBox="0 0 1355 1563">
  <defs>
    <clipPath id="clip-europe">
      <rect width="1355" height="1563"/>
    </clipPath>
  </defs>
  <g id="europe" clip-path="url(#clip-europe)">
    <g transform="translate(-22.13 -27.741)">
      <path id="path1364" d="M886.441,1587.421c-1.161-1.877-5.535-3.426-9.7-3.464-4.181-.019-9.909-1.548-12.774-3.368-3.561-2.284.213-2.729,12.116-1.432,25.721,2.825,32.844,4.626,32.844,8.322C908.931,1591.872,889.209,1591.814,886.441,1587.421ZM1163.4,1558.2c-1.3-3.329.135-8.361,3.348-11.864,9.851-10.7-.174-18.038-10.606-7.761-4.219,4.142-6.638,4.567-9.58,1.684-5.613-5.516-18.212-4.761-23.438,1.432-5.458,6.464-14.806,11.535-28.3,15.348-8.458,2.38-11.632,1.471-18.561-5.361-7.277-7.142-33.676-18.677-42.753-18.677-1.7,0-3.6,3.406-4.2,7.568-1.3,8.864-14.283,16.219-24.134,13.683-3.793-.968-8.322-5.477-10.083-10.006-1.742-4.548-4.645-7.374-6.406-6.29-1.78,1.084-5.477-1.2-8.245-5.071-3.929-5.516-7.122-6.522-14.922-4.664-5.458,1.277-8.864,1.2-7.548-.194s-1.645-6.213-6.561-10.683c-4.9-4.49-7.142-8.148-4.974-8.148,2.187,0,3.968-2.3,3.968-5.11a5.143,5.143,0,0,0-5.187-5.09,5.171,5.171,0,0,1-5.187-5.11c0-2.806,1.955-5.129,4.335-5.148,3-.039,2.806-1.006-.658-3.135-4.064-2.535-4.161-4.045-.5-8.361,3.658-4.355,3.445-6.251-1.219-10.819-4.664-4.587-4.877-6.5-1.2-10.877,3.909-4.684,3.1-5.052-6.793-3.135-9.213,1.8-11.225,1.142-11.187-3.677.135-14.786,15.5-20.728,55.255-21.348,12.367-.193,20.148-1.3,17.283-2.438-3.406-1.374-.464-3.522,8.651-6.271,7.819-2.381,10.761-4.3,6.735-4.452-6.754-.252-15.386-6.116-15.386-10.47,0-2.361,28.412-.949,42.327,2.109,6.832,1.49,10.045.581,11.554-3.329,3.716-9.483,45.095-26.36,63.152-25.721,8.844.291,18.657-.5,21.812-1.8,3.968-1.626,6.406-.29,7.9,4.316,2.4,7.451,14.574,12.077,17.883,6.813,1.161-1.877,3.948.193,6.174,4.568s7.1,8.109,10.838,8.3,11.457,2.245,17.167,4.548c16.2,6.561,30.444,7.974,43.74,4.354,8.051-2.187,14.341-2.148,18.386.077,6.87,3.775,30.966-1.8,39.869-9.232,2.845-2.38,12.464-5.09,21.367-6.019,15.1-1.587,16.9-.89,26.96,10.277,7.2,7.993,9.619,13.1,7.316,15.387-2.032,1.994-2.245,5.632-.5,8.825a78.55,78.55,0,0,1,4.142,8.845c.677,1.858,5.109,3.387,9.851,3.387,7.916,0,9,1.742,7.432,11.922-.271,1.858-3.019,3.387-6.058,3.387-3.774,0-4.858,1.839-3.348,5.69,6.154,15.774,8.9,36.115,5.458,40.218-2.632,3.116-2.322,4.819,1.142,6.135,2.632.987,5.632,4.935,6.639,8.787,1.761,6.619.658,6.909-21.948,5.632-13.277-.735-24.715.135-25.876,1.994-1.316,2.09-3.755,1.935-6.658-.426-3.155-2.574-5.245-2.632-6.793-.174-1.239,1.974-9.1,3.581-17.477,3.581s-23.186,3.077-32.921,6.851c-15.309,5.942-19.528,6.31-31.45,2.807-10.78-3.174-16.354-3.155-25.547.116-8.98,3.193-13.528,3.251-19.238.252-5.864-3.1-8.109-2.942-10.451.677-1.626,2.516-2.226,6.581-1.316,9.019s-1.239,7.509-4.78,11.245c-5.884,6.193-6.638,6.29-8.69,1.026Zm-1031.027-.6c-2.121-1.374-7.122-8.826-11.113-16.567-4.842-9.406-10.743-15.271-17.75-17.69-11.729-4.006-13.381-10.819-4.7-19.354,4.732-4.664,5.028-6.909,1.622-12.271-3.341-5.264-3.159-7.993.9-13.7,4.477-6.29,4.45-8.071-.23-15.1-4.808-7.219-4.763-8.5.488-13.664,3.186-3.135,5.04-8.535,4.12-11.98-.919-3.464-.163-7.219,1.684-8.342s2.915-6.193,2.375-11.264c-.6-5.651,2.094-13.083,6.936-19.141,4.546-5.69,6.344-10.432,4.217-11.128-2.038-.658-3.7-4.142-3.7-7.723,0-4.877-2.446-6.522-9.681-6.522-5.324,0-11.185,1.471-13.025,3.29-3.861,3.794-18.781.813-18.781-3.755,0-1.684-3.89-2.11-8.644-.929-7.411,1.819-8.643.968-8.643-5.98,0-4.471-2.47-11.593-5.487-15.832-4.324-6.077-4.608-8.748-1.335-12.619,2.282-2.71,5.388-4.161,6.9-3.251,4.48,2.729,13.749-2.09,13.749-7.142,0-6.5,16.2-9.929,22.536-4.761,3.242,2.652,11.454,3.619,22.093,2.613,9.313-.871,19.807.058,23.32,2.091,3.511,2.013,21.164,4.026,39.234,4.451,40.334.987,55.6,2.807,58.372,7.025,4.9,7.451,24.367,13.819,42.018,13.741,29.012-.135,30.986.252,30.986,6.116,0,3.29,1.916,4.722,4.839,3.638,2.671-1.006,5.787-.929,6.909.174,3.677,3.619,22.818,4.355,22.818.89a3.429,3.429,0,0,1,3.464-3.367c1.9,0,3.445,4.316,3.445,9.6,0,11.167-16.335,23.438-40.8,30.618-8.187,2.4-15.851,6.967-17.032,10.141-1.181,3.155-8.4,14.535-16.025,25.276l-13.877,19.528,5.69,11.729c5.632,11.632,5.593,11.845-4.529,22.509-5.632,5.922-10.219,13.664-10.219,17.206,0,4.084-2.439,6.445-6.677,6.445-3.658,0-11.341,5.593-17.07,12.425-9.406,11.225-12,12.406-27.038,12.212-9.154-.1-25.721,1.432-36.838,3.426-15.874,2.826-20.991,5.3-23.893,11.574-3.95,8.535-5.582,9.29-11.624,5.361Zm693.454-18.619c-3.213-6.793-5.574-8.38-8.651-5.864-5.226,4.258-9.658-4.413-4.742-9.27,2.013-1.974-.039-6.194-5.381-11.129l-8.593-7.954,7.354-6.29c4.045-3.464,9.077-6.271,11.148-6.271,5.632.02,27.58,13.683,30.812,19.18,1.548,2.613,4.258,3.871,6.038,2.787,1.8-1.084,3.252-.348,3.252,1.626,0,4.568-5.477,4.606-14.051.078-7.993-4.2-8.283-2.555-1.761,9.851,5.187,9.851,2.09,22.509-3.367,13.819-2.071-3.29-3.368-2.748-5.187,2.187-2.226,6-2.845,5.748-6.871-2.748ZM634.994,1533c-2.381-3.735-7.451-6.832-11.264-6.851-9.851-.1-39.018-17.844-37.315-22.721.793-2.226,3.5-3.271,6.038-2.323,2.535.968,5.613.174,6.813-1.761,1.49-2.38,4.664-2.4,9.89-.058,4.974,2.226,14.748,2.361,27.541.387,10.916-1.684,19.78-2.129,19.722-1.026-.077,1.122-2.264,5.845-4.877,10.49-3.116,5.554-3.677,10.432-1.626,14.206C657.232,1536.791,643.181,1545.887,634.994,1533ZM68.522,1527.21c-8.38-1.277-8.856-2.381-7.885-18.348.569-9.348,1.779-18.173,2.69-19.625,2.344-3.735-9.573-13.1-14.576-11.458-5.611,1.839-5.274-9.7.526-18,8.254-11.825,16.135-54.114,12.445-66.772-4.4-15.115-4.343-15.406,3.617-17.438,3.966-1.026,6.921-.116,6.929,2.148.01,2.168,5.454,4.2,12.1,4.529,6.648.348,12.087-.813,12.087-2.536,0-1.742,3.72-3.174,8.268-3.174,11.289,0,15.373,15.038,6.66,24.5-3.608,3.91-5.729,10.645-5.129,16.258.561,5.283-.49,10.509-2.336,11.632s-2.52,5.187-1.5,9.038c1.372,5.167-.1,7.509-5.6,8.922l-7.461,1.916,6.695,11.167c6.038,10.064,6.187,11.883,1.519,18.425-3.964,5.574-4.242,8.38-1.188,12,3.068,3.639,2.65,6.735-1.808,13.432-3.19,4.8-4.906,10.993-3.819,13.78,1.635,4.2-8.152,13.373-12.228,11.477a97.766,97.766,0,0,0-10.01-1.877Zm797.153-21.483c-1.2-1.916-9.464-7.084-18.367-11.516-11.961-5.961-20.806-7.819-33.966-7.161-15.677.794-18.212-.039-21.425-6.967-3.155-6.813-2.632-8.071,3.948-9.329,6.987-1.335,7.026-1.49.581-1.916-12.058-.793-23.476-31.063-11.728-31.063,1.761,0,3.193-2.11,3.193-4.684,0-2.593,2.322-6.58,5.148-8.9,2.845-2.3,4.3-5.555,3.251-7.219-1.606-2.574,5.4-4.49,12.89-3.523,1.239.155,4.142-1.955,6.464-4.7s8.69-4.993,14.167-4.993,9.948-1.529,9.948-3.387c0-1.877,3.793-3.406,8.419-3.406a61.624,61.624,0,0,0,17.883-3.542c7.006-2.613,12.658-2.322,21.831,1.123,6.793,2.574,17.322,4.355,23.4,3.948,7.025-.464,11.728,1.084,12.967,4.277,3.271,8.4-1.064,10.858-12.812,7.238-12.232-3.755-13.973-3.851-26.747-1.355-4.742.929-11.748,2.265-15.561,2.981-3.793.716-7.122,3.445-7.374,6.058-.251,2.632-.639,6.309-.871,8.187-.213,1.858-4.2,3.6-8.845,3.871-6.135.348-8.787-1.51-9.716-6.794-1.161-6.793-1.568-6.658-5.961,2.148-3.619,7.239-3.774,10.393-.677,13.451a16.134,16.134,0,0,1,4.064,10.1c0,3.368,2.323,6.116,5.187,6.116,2.845,0,5.187,1.626,5.187,3.6,0,1.993-1.568,2.671-3.464,1.51-6.039-3.677-11.148,1.781-6.658,7.1,3.232,3.832,2.748,4.819-2.419,4.935-4.819.116-3.774,1.626,4.1,5.961,17.864,9.793,24.618,15.677,27.193,23.67,2.516,7.858.619,10.335-3.232,4.18Zm-199.695-5.381c-2.555-2.516,3.581-19.18,8.051-21.889,1.9-1.142.252-10.683-3.871-22.721-5.458-15.87-9.019-21.193-15.174-22.722a14.706,14.706,0,0,1-10.238-10.528c-1.393-5.477-4.587-8.535-8.942-8.535-3.716,0-9.212-3.658-12.193-8.129-3.755-5.651-9.967-8.806-20.36-10.354-12.89-1.9-18.56-5.865-41.321-28.876-14.516-14.67-26.4-28.76-26.418-31.315,0-2.554-1.548-10.064-3.426-16.7-2.71-9.638-6.638-13.606-19.47-19.741l-16.083-7.683-13.141,10.393c-14.419,11.38-17.438,12.542-16.141,6.135.484-2.342-2.071-4.258-5.632-4.278-3.581,0-8.825-3.445-11.67-7.645-3.774-5.613-4.006-7.645-.871-7.645,3.116,0,2.845-2.129-.987-7.877-4.819-7.239-4.684-8.226,1.413-11.98,5.264-3.232,5.922-5.477,3.135-10.606-5.206-9.561-4.8-10.064,10.3-12.445,12.483-1.955,15.483-4.568,14.225-12.348-.871-5.5,6.348-2.129,12.812,5.942,8.013,10.026,10.954,10.7,11.09,2.555.155-8.051,9.116-19.567,10.974-14.09,2.11,6.271,16.586,7.413,16.586,1.316,0-2.787,1.548-5.071,3.445-5.071,1.916,0,3.464-2.477,3.464-5.477,0-3.7,1.858-4.761,5.767-3.29,3.174,1.2,6.89.426,8.245-1.722,4.142-6.6,25.2-7.335,29.883-1.064,2.264,3.039,9.1,6.522,15.193,7.742,9.58,1.935,11.225,3.832,12.309,14.225,1.142,10.877.213,12.387-10.006,16.1-18.909,6.89-20.573,8.729-16.7,18.7,2.323,6.039,2.3,9.658-.078,11.109-2.09,1.258-2.516,6.5-1.026,12.87,1.374,5.9,2.342,13.412,2.148,16.683s1.1,5.942,2.884,5.942a3.361,3.361,0,0,0,3.252-3.426c0-1.9,5.477.019,12.154,4.258,9.406,5.922,13.393,11.729,17.5,25.412,7.238,24.057,26.457,39.811,44.534,36.482,12.271-2.264,15.541.7,8.458,7.664-2.768,2.709,2.226,7.1,18.135,16.006,31.818,17.767,47.243,31.16,41.94,36.4-3.329,3.309-4.684,2.961-6.464-1.606-1.239-3.193-6.987-8.206-12.774-11.148-10.083-5.129-10.8-5.013-16.974,2.671-13.432,16.7-13.9,19.3-4.587,25.315,10.451,6.716,11.361,17.128,1.8,20.128-3.813,1.181-6.929,4.393-6.929,7.142,0,5.806-10.006,21.773-13.645,21.773a7.665,7.665,0,0,1-4.567-2.052ZM488.7,1466.981c-5.767-4.142-6.193-6.29-2.981-14.69,2.787-7.258,2.69-13.47-.368-23.689-4.122-13.722-4.064-13.877,6.832-19.006,10.413-4.877,11.264-4.761,15.638,2.129,2.535,4.006,5.148,11.728,5.787,17.167,1.471,12.464-5.013,36.908-9.135,34.411-1.7-1.026-4.413.464-6.038,3.329-2.593,4.548-3.832,4.587-9.735.348ZM770.7,1443.833c-.039-3.193-3.309-7.528-7.277-9.619s-6.367-4.645-5.322-5.671.464-4.529-1.3-7.78c-1.781-3.251-2.245-6.871-1.045-8.051,3.561-3.5,3.793-33.966.31-40.624-4.1-7.9,2.5-16.335,10.49-13.432,11.5,4.181,17.477,14.4,15.5,26.418-1.374,8.264.213,14.825,5.709,23.573,4.2,6.658,6.039,12.116,4.122,12.116-1.935,0-4.413,2.671-5.535,5.942-1.1,3.29-5.071,9.793-8.806,14.457-5.361,6.755-6.793,7.3-6.851,2.671Zm164.509-26.108c-6.716-2.555-10.9-19.219-5.632-22.412,1.587-.968,2.09-4.8,1.1-8.5-2.264-8.5,14.264-16.141,21.715-10.045,2.555,2.071,6.232,2.787,8.226,1.587,1.974-1.219,5.245,1.394,7.277,5.768,2.013,4.374,8.632,10.2,14.709,12.948l11.012,4.974-18.483,1.045c-14.167.793-20.206,2.922-25.934,9.077-5.264,5.69-9.348,7.316-13.993,5.555Zm-145.368-12.561c-2.961-2.923-5.38-9-5.38-13.509,0-9,9.909-22.586,14.438-19.838,1.568.948,2.845.29,2.845-1.471,0-5.767,26.631-3.968,32.012,2.168,11.593,13.18,7.761,27.851-7.238,27.851-3.658,0-8.284,1.955-10.3,4.335C810.883,1411.028,796.058,1411.28,789.845,1405.164Zm98.222-14.38c-8.845-4.219-12.716-4.316-23.863-.7-14.283,4.626-21.793,2.71-18.851-4.8.987-2.555-1.335-7.529-5.187-11.051-6.387-5.845-7.084-10.722-4.239-29.147.213-1.413,2.729-2.555,5.574-2.555a5.155,5.155,0,0,0,5.187-5.091c0-2.806-1.51-5.109-3.367-5.109s-5.806-4.645-8.787-10.316c-4.684-8.9-4.742-10.954-.5-15.135,5.5-5.4,9.638-3.464,7.026,3.271-1.935,4.974,12.658,8.109,45.385,9.774,15.793.813,22.954-.445,29.96-5.206,15.212-10.316,28.721-11.341,42.734-3.193,6.832,3.948,14.651,7.2,17.4,7.2,7.374,0,6.058,5.729-1.761,7.741-3.793.987-7.838,6-9.232,11.419-1.355,5.322-4.548,11.729-7.064,14.206-5.168,5.071-6.329,12.29-1.51,9.368,4.471-2.729,8.148,8.786,4.084,12.793-2.265,2.226-5.11,1.993-8.342-.639-6.658-5.438-23.128.793-25.47,9.658-3.058,11.438-22.935,15.251-39.172,7.51Zm-393.235-4.877c-.194-2.342-1.316-9.135-2.477-15.1-1.723-8.864-.735-11.574,5.419-14.806,7.684-4.045,13.374-.271,13.509,8.981C511.5,1379.539,495.994,1399.261,494.832,1385.907Zm289.633-16.412c0-5.11-7.645-12.038-16.238-14.728-5.342-1.664-9.077,0-14.09,6.251-6.387,7.993-7.141,8.167-12.038,2.671-7.025-7.877-10.974-21.154-6.271-21.154,2.032,0,3.677-2.38,3.677-5.3s1.568-4.355,3.484-3.174c1.916,1.161,4.432-.29,5.555-3.213,1.142-2.922,4.258-5.322,6.89-5.322,5.806,0,6.367-5.458.929-8.768-2.651-1.606-2.032-3.406,1.916-5.574,5.342-2.942,5.206-3.755-1.49-9.464-6.232-5.322-6.677-7.238-3-13.044,3.484-5.478,3.445-7.858-.213-12.174-3.039-3.6-3.252-5.38-.658-5.38a3.687,3.687,0,0,0,3.89-3.406c0-6.271-7.548-3.484-9.387,3.464-1.432,5.342-2.884,6.039-6.522,3.058-4.3-3.5-19.722-5.419-60.152-7.452-13.625-.677-15.7.155-16.625,6.6-.658,4.51,5.11,16.083,14.728,29.631l15.812,22.257-11.225-.716c-11.67-.755-32.882-19.2-26.515-23.07,1.781-1.084.1-4.761-3.754-8.187s-7.006-9-7.006-12.367c0-3.387-3.019-8.922-6.735-12.329-4.277-3.929-5.69-7.819-3.89-10.7,1.993-3.155,3.561-3.387,5.226-.755,3.89,6.213,15.154,4.258,17.515-3.038,1.2-3.736,3.813-6.793,5.806-6.793s2.826-3.1,1.819-6.851c-1.974-7.413,5.651-13.316,15.212-11.787,3.039.484,11.632,4.838,19.064,9.677,15.677,10.2,35.882,15.367,35.882,9.174,0-2.206,1.587-3.058,3.542-1.858a6.885,6.885,0,0,1,3.058,6.155c-1.026,8.148.426,12.483,4.18,12.483,2.11,0,3.077-2.671,2.148-5.942-.948-3.271-2.3-8.051-3-10.606a4.886,4.886,0,0,1,3.89-5.884c22.335-5.361,23.689-5.283,30.792,1.7,3.987,3.91,7.238,9.368,7.238,12.116s3.5,6.967,7.78,9.367,7.78,7.238,7.78,10.78,3.116,8.129,6.929,10.2c3.793,2.09,8.187,5.3,9.755,7.18,1.858,2.206,3.484,1.9,4.626-.851.948-2.342,2.845-4.258,4.18-4.258,3.871,0,3.929,14.593.058,19.16-3.7,4.394,3.677,22.451,10.993,26.9,2.342,1.432.948,4.18-3.735,7.413-4.722,3.251-6.832,7.509-5.767,11.554,2.109,7.9-1.432,10.219-15.851,10.412-6.155.1-14.632,2.284-18.832,4.877-9.212,5.671-11.361,5.865-11.361,1.064Zm-462.5-11.554c-4.1-6.7-21.986-10.935-42-9.948-19.277.948-40.373-6.213-36.482-12.406,1.123-1.781-.252-3.252-3.058-3.252-4.432,0-4.49-1.684-.426-12.754,2.574-7.026,6.058-24.231,7.722-38.263,2.729-22.78,1.761-30.812,3.155-37.6,1.664-8.187.5-10.451-7.025-13.819-10.045-4.51-20.806-18.541-17.825-23.264,1.064-1.684-1.374-5.361-5.419-8.129-4.045-2.787-6.309-6.716-5.032-8.748,1.355-2.187-.639-3.677-4.955-3.677-3.987,0-13.47-3.116-21.077-6.929-7.587-3.813-15.367-5.981-17.281-4.819-2.172,1.335-2.667-1.045-1.318-6.329,1.568-6.155.434-9.406-4.155-11.942-8.309-4.567-4.091-8.264,9.962-8.729,6.232-.193,13.257-2.651,15.6-5.458,3.735-4.452,5.129-4.045,10.761,3.038,3.871,4.858,8.167,7.122,10.645,5.613,2.3-1.393,9.232-2.535,15.445-2.535h11.264l-2.4-14.109c-1.316-7.761-3.6-16.974-5.109-20.457-2.4-5.632-1.877-5.9,4.722-2.439,4.1,2.148,7.451,5.207,7.451,6.774,0,3.658,25.489,7.7,32.341,5.129a5.389,5.389,0,0,0,3.368-6.832c-1.3-3.29,3.116-7.026,13.7-11.632,15.444-6.716,23.186-18.135,23.186-34.14,0-3.542,4.1-7.374,10.045-9.426,8.729-2.98,10.277-2.555,11.864,3.387,1.355,5.11,3.6,6.251,8.961,4.587,4.819-1.51,7.161-.755,7.161,2.342,0,6.058,11.341,15.406,16.586,13.683,2.284-.755,4.355.29,4.587,2.322.232,2.013.677,5.593.948,7.935.29,2.322,3.387,4.006,6.871,3.716,3.5-.31,10.858,3.387,16.335,8.206,5.5,4.819,13.9,9.155,18.677,9.658s17.128,4.839,27.444,9.638,20.418,8.729,22.431,8.729c4.78,0,4.664,5.438-.368,14.67-2.206,4.065-5.806,14.3-7.993,22.741-2.361,9.058-6,15.386-8.942,15.464-2.729.1-4.626,1.819-4.238,3.852.406,2.032-2.322,6.406-6.038,9.735-3.735,3.309-6.774,7.916-6.774,10.238s-2.439,5.129-5.419,6.251c-2.961,1.123-4.393,3.639-3.155,5.613s.174,6.155-2.381,9.309c-3.929,4.9-3.116,4.819,5.477-.6,9.754-6.135,10.238-6.135,14.709-.116,2.922,3.948,3.406,7.413,1.316,9.464-2.071,2.051-1.451,6.735,1.742,12.793,4.664,8.884,4.51,9.851-2.129,13.355-5.69,2.98-6.329,4.742-3.1,8.574,2.245,2.651,3.213,7.045,2.148,9.754-2.768,7.1,10.529,22.528,17.244,19.993,4.626-1.742,4.839-.929,1.471,5.265-2.187,4.026-5.419,7.316-7.2,7.316-1.761,0-8.129,4.722-14.128,10.49-6.425,6.174-13.219,9.793-16.528,8.806-3.1-.948-10.683-3.367-16.877-5.4-29.457-9.677-30.405-9.735-44.379-2.052-8.884,4.877-13.916,10.238-14.69,15.657-.639,4.51-2.381,9.464-3.89,11.013-4.49,4.606-20.864,5.09-23.554.7ZM717.868,1347.1c-7.1-4.974-12.928-11.709-12.928-14.941,0-3.251-1.993-6.658-4.432-7.567-6.793-2.574-33.6-42.618-33.6-50.185q0-12.426,9.019-.735c4.045,5.226,4.606,5.284,4.7.464.077-4.026,2.652-5.148,9.619-4.181,5.226.716,17.109,2.032,26.4,2.9s19.006,3.31,21.56,5.4a11.188,11.188,0,0,0,9.909,1.839c3.193-1.2,5.226-.039,5.226,3.019,0,2.748-1.548,4.993-3.464,4.993-1.9,0-3.445,3.077-3.445,6.813s1.51,6.793,3.348,6.793,2.439,2.322,1.335,5.148-.077,7.432,2.264,10.2c3.542,4.219,3.039,5.071-2.961,5.071-5.322,0-6.658,1.49-5.032,5.651,1.393,3.542.832,4.819-1.451,3.426-4.935-3-15.251,13.006-12.658,19.644,2.768,7.084,1.626,6.774-13.412-3.755Zm145.349-32.3c-2.439-1.529-8.012-2.787-12.406-2.826-4.587-.019-7.045-1.548-5.787-3.542,1.2-1.916-1.432-6.464-5.845-10.083-4.606-3.774-6.1-6.658-3.523-6.716,2.5-.058,3.639-1.548,2.535-3.29s-6.58-3.039-12.193-2.884c-11.864.329-21.909-6.58-19.3-13.3,1.084-2.748-1.7-6.232-6.754-8.5-4.722-2.11-8.574-6.58-8.574-9.928s-2.729-7.8-6.058-9.871-4.49-4.451-2.593-5.322c15.6-7.006,20.573-11.09,22.605-18.445,2.477-9.038,24.076-44.2,24.076-39.192,0,1.626,3.58-.348,7.954-4.393,6.406-5.922,9.929-6.793,18.154-4.49,5.613,1.568,13.993,2.284,18.657,1.587,4.819-.735,9.619.755,11.148,3.445,2.3,4.045,5.168,3.968,19.2-.426,9.077-2.845,18.967-7.239,21.967-9.774,9.155-7.683,12.116-5.5,27.27,20.07,12.174,20.515,14.825,28.238,15.773,45.869.619,11.671,2.129,24.308,3.348,28.063,2.439,7.567,15.135,9.329,21.56,3,4.277-4.219,14.748-1.723,14.748,3.5,0,5.535-11.632,15.309-13.1,11.012-.716-2.129-2.477-3.871-3.929-3.871-3.174,0-10.625,23.5-10.625,33.56,0,4.993-2.168,7.258-6.909,7.258-3.813,0-6.929-1.413-6.929-3.135,0-4.993-23.689-11.322-33.386-8.942a70.976,70.976,0,0,0-17.728,7.935c-9.483,6.116-45.443,8.554-53.359,3.619Zm244.248-22.083c-2.032-.755-3.058-5.671-2.284-10.955,1.18-7.877-.6-10.858-9.929-16.664l-11.342-7.064,12.89-6.058c17.612-8.264,15.541-16.025-4.664-17.477-8.554-.6-17.825-1.878-20.631-2.845-4.471-1.51-4.471-2.09,0-4.8,4.3-2.632,4.064-3.813-1.568-7.858-3.639-2.613-9.077-4.3-12.077-3.735-20.748,3.89-24.483,5.477-24.483,10.393,0,10.548-30.618,33.869-49.14,37.431-6.91,1.335-5.594-2.961,7.664-25.1,8.206-13.722,13.819-18.29,13.819-11.283,0,1.761,3.329,2.574,7.393,1.819,8.593-1.645,13.084-5.013,6.658-5.013-2.439,0-3.561-2.187-2.516-4.858s-.348-6.7-3.1-8.922c-2.729-2.245-4.974-7.7-4.974-12.154,0-5.168-2.013-8.09-5.554-8.09-4.084,0-5.032-2.09-3.561-7.838,1.3-5.129-.077-9.522-4.006-12.754-18.464-15.135-57.249-20.283-66.674-8.825-7.9,9.58-40.218,19.857-42.676,13.567-1.026-2.613-5.942-4.277-11.4-3.871-15.754,1.2-37.992-4.161-43.895-10.567-7.277-7.935-1.219-28.315,7.451-25.044,4.432,1.665,4.993.484,2.961-6.155-1.374-4.529-2.787-9.87-3.135-11.883-.794-4.471,23.922-32.05,28.741-32.05,1.9,0,3.7-1.916,3.987-4.258s.755-6.542,1.064-9.348c.29-2.806-1.993-8.942-5.09-13.606-5.593-8.5-5.555-20.418.039-20.418,1.626,0,5.439-2.419,8.438-5.4,9.019-8.864,65.32-6.542,71.571,2.961,1.219,1.839,9.251,3.542,17.864,3.755,8.593.213,16.8,1.529,18.212,2.9,1.393,1.393,4.548.909,6.967-1.084,3.135-2.555,6.561-2.477,11.69.232,4.006,2.09,10.142,2.923,13.645,1.819,3.968-1.239,7.142-.019,8.4,3.213,3.619,9.309,9.155,5.5,9.155-6.271,0-14.786,6.793-20.051,26.708-20.709,8.845-.291,16.644-2.187,17.322-4.219.7-2.032,4.122-2.942,7.606-2.052,3.5.909,7.277.174,8.4-1.606,3.929-6.251,19.7,0,24.889,9.87,2.845,5.38,3.832,9.793,2.206,9.793s-2.264,4.587-1.432,10.2c1.432,9.619,5.226,11.961,17.012,10.49,4.839-.6,16.78,15.948,13.7,18.967-1.142,1.122-.484,4.974,1.471,8.574,2.419,4.432,5.69,5.845,10.258,4.413a12.654,12.654,0,0,1,12.154,3.251c4.858,4.78,6.232,4.8,12.871.232,10.567-7.277,13.954-6.445,20.921,5.148,3.387,5.651,7.587,9.406,9.329,8.342,3.968-2.419,35.282,8.361,44.785,15.425,6.851,5.071,6.89,5.536.968,11.98-6.193,6.754-8.012,17.4-4.026,23.709,2.187,3.484,1.49,12.328-1.606,20.264-1.064,2.748-5.187,3.755-10.916,2.671-7.2-1.355-11.419.658-19.334,9.193-5.574,6-9.367,12.135-8.419,13.625.929,1.49-5.3,4.645-13.877,7.006s-16.412,5.613-17.418,7.238c-1.026,1.606-4.142,2.922-6.948,2.922s-10.877,2.555-17.941,5.651-13.9,5.787-15.174,5.942c-5.593.755-20.147,16.1-20.147,21.27,0,3.135.948,4.761,2.11,3.619,1.161-1.161,6,2.458,10.761,8.032,6.426,7.49,10.567,9.58,16.045,8.051,4.064-1.142,10.1-2.826,13.432-3.735,3.774-1.045,6.038.213,6.038,3.31,0,6.425-8.709,9.619-19.257,7.025-5.825-1.451-8.961-.426-10.451,3.406-1.18,3-4.509,5.458-7.412,5.458s-10.122,2.864-16.045,6.367c-5.942,3.522-12.464,5.767-14.5,5.032Zm-489.308-44.553c-8.883-15.677-6.677-22.78,7.277-23.437,12.464-.561,35.418-5.38,45.443-9.542,10.606-4.374,10.412,4.916-.232,10.9-7.567,4.258-9.967,7.664-8.554,12.116,1.393,4.316-.136,6.735-4.993,7.974-4.219,1.083-6.251,3.7-5.129,6.58,2.187,5.632-.426,6.019-9.271,1.355-4.335-2.284-7.2-2.284-8.632,0-3.832,6.1-10.49,3.6-15.909-5.942Zm355.959.194c-.29-3.387-.832-14.341-1.219-24.347-.406-10.006-2.129-19.2-3.832-20.419-3.213-2.284-5.671-6-19.993-30.25l-8.535-14.457,8.458-2.09c8.845-2.187,29.07,4.219,29.07,9.193,0,1.588,2.342,1.994,5.187.929,2.864-1.083,5.187-.271,5.187,1.8s2.342,3.774,5.187,3.774c6.116,0,6.716,3.929,1.393,9.174-2.768,2.729-1.916,5.593,3.116,10.548,3.793,3.735,7.955,10.025,9.213,13.935,1.277,3.929,3.716,7.142,5.419,7.142,1.723,0,2.226,2.284,1.142,5.09-1.316,3.368-4.664,4.413-9.967,3.1-6.851-1.684-8.961.174-14.806,13.2-7.664,17.031-14.264,23.051-15.019,13.683Zm-264.9-8.245c-21.154-10.3-29.147-21.444-26.3-36.7,1.258-6.735,3.619-12.735,5.264-13.374,1.626-.619,2.09-2.535,1.026-4.258-1.084-1.7.31-3.1,3.058-3.1,2.768,0,6-2.516,7.2-5.574,1.974-5.071,2.71-5.09,8.187-.213,7.451,6.638,35.321,4.142,35.321-3.174,0-2.69,3.639-4.645,8.651-4.645,4.742,0,8.632-1.394,8.632-3.078,0-1.7,2.942-2.342,6.522-1.413,4.006,1.026,8.361-.929,11.322-5.09,3.329-4.683,8.748-6.755,17.69-6.755,7.083,0,12.87,1.374,12.87,3.058s3.658,3.077,8.109,3.077c4.471,0,11.787,3.116,16.257,6.929,8.129,6.929,8.129,6.948.813,8.826-7.625,1.974-32.089,37.489-32.089,46.624,0,7.1-4.258,9.213-25.257,12.445-27.812,4.3-38.418,6.928-42,10.393-4.781,4.664-8.845,4.026-25.276-3.987Zm-260.486-7.277c-2.98-7.083-5.942-9.406-10.529-8.226-7.8,2.013-11.845-3.019-4.645-5.748,2.845-1.084,5.167-4.006,5.167-6.522s4.413-8.729,9.793-13.8c9.425-8.883,17.167-11.167,47.417-13.993,13.528-1.277,13.993-.968,14.748,9.464.852,11.4,9.58,20.554,16.974,17.767,6.387-2.419,5.458.5-2.729,8.554-5.729,5.632-8.129,6.213-12.174,2.9-2.787-2.264-5.4-3.5-5.826-2.767s-2.439,4.3-4.49,7.935c-5.3,9.464-12,10.567-14.186,2.342-1.529-5.748-3.116-6.445-8.419-3.639-3.581,1.877-6.522,5.5-6.522,8.032,0,2.516-4.606,5.264-10.219,6.058-8.651,1.258-10.838-.019-14.361-8.361Zm155.955-13.9c-14.128-3-19.9-6-22.451-11.69-2.206-4.916-5.3-6.91-8.651-5.594a64,64,0,0,1-12.909,2.981c-4.239.484-9.909,2.709-12.6,4.9-3.793,3.1-6.038,2.884-9.967-1.006-3.29-3.232-6.29-3.832-8.438-1.7-5.477,5.38-14.883-.426-14.883-9.193,0-8.748,2.284-9.851,10.219-4.916,2.748,1.722,6.638,2.109,8.632.852s7.509-2.516,12.27-2.807,15.464-2.478,23.805-4.839c11.419-3.232,16.7-3.348,21.444-.445,8.3,5.109,11.012.116,6.425-11.767-3.058-7.935-2.632-10.258,2.574-13.954,3.445-2.419,9.019-6.7,12.406-9.5,4.471-3.7,7.935-4.181,12.561-1.742,4.993,2.632,8.419,1.548,15.464-4.877,8.554-7.8,9.793-7.993,22.431-3.619,7.355,2.555,16.2,4.394,19.644,4.1,4.49-.387,7.1,2.845,9.232,11.361,4.877,19.7,4.684,21.56-2.516,23.573-3.794,1.064-7.064,3.852-7.258,6.193-.194,2.323-.581,8.013-.852,12.619-.716,11.554-11.264,16.625-48.927,23.515-4.761.871-17.206-.232-27.657-2.439ZM519.76,1185.9c-5.593-3.639-12.1-5.9-14.477-5.013-2.38.871-4.316.252-4.316-1.374,0-3.31-13.9-2.613-28.915,1.432-9.754,2.632-9.851,2.516-7.355-8.864a119.949,119.949,0,0,1,8.845-23.786l6.329-12.29-21.444-8.3C440,1120.583,437,1118.2,437,1110.789c0-4.761-1.916-10.915-4.239-13.683-3.174-3.793-3.251-6.019-.29-8.941s2.458-7.142-2.013-16.877c-4.49-9.832-5.11-15.154-2.516-21.851,1.877-4.877,2.613-11.9,1.626-15.6-1.335-5.013.329-7.258,6.561-8.786,10.587-2.613,18.928-18.5,11.225-21.406-6.561-2.477-6.735-8.032-.252-8.032,6.155,0,10.18-17.128,7.18-30.6-2.206-9.851-1.858-10.2,10.1-10.2,6.813,0,11.98,1.142,11.516,2.535-.987,2.922,2.013,4.258,9.561,4.258,3.832,0,4.684-2.226,3.155-8.264-1.877-7.335-1.2-8.032,5.98-6.213,4.451,1.122,9.638,3.929,11.554,6.232,1.9,2.284,7.335,5.148,12.1,6.368,7.877,2.013,8.051,1.839,1.9-1.916-8.671-5.284-24.638-23.96-23.515-27.5.484-1.49-1.064-2.767-3.445-2.806-2.419-.058-1.664-1.645,1.7-3.561,5.632-3.232,5.651-4.006.29-12.057l-5.729-8.613,13.528,2.381c16.606,2.9,22.373,7.393,15.232,11.825-4.645,2.884-2.439,4.781,4.355,3.716a2.275,2.275,0,0,1,2.593,2.419c0,1.548,5.458,2.652,12.1,2.439,12.232-.406,16.277,3.58,7.142,7.026-2.729,1.045-4.277,3.677-3.426,5.864,1.742,4.432,18.754,6.464,18.754,2.245,0-3,25.857-16.993,31.373-16.993,1.935,0,6.774,3.019,10.8,6.677,4.006,3.677,8.671,5.845,10.374,4.819,10.722-6.522,22.547,24.947,14.864,39.56-4.393,8.361-4.258,9.909,1.2,14.786,3.368,3,7.9,12.735,10.064,21.677,8.554,35.224,8.612,37.489,1.084,44.9-3.929,3.87-9.716,7.025-12.87,7.025-3.135,0-15.715,5.5-27.947,12.232-20.438,11.245-22.044,12.948-19.993,21.25,1.239,4.974,10.316,17.187,20.186,27.135l17.922,18.1-13.141,10.955c-12.038,10.044-12.851,11.767-9.522,20.4,4.858,12.561,4.7,13.083-2.806,8.477-4.935-3.039-9.987-2.961-21.6.329-8.341,2.361-19.044,4.548-23.805,4.839s-10.3,1.567-12.309,2.845c-2.032,1.258-8.245-.677-13.838-4.3Zm184.115-15.309c-12.5-11.535-11.941-26.437,1.065-28.179,9.716-1.316,20.747-9.716,20.747-15.831,0-2.206,3.89-5.767,8.651-7.9,6.426-2.884,8.632-2.884,8.632-.019,0,2.226,2.632,1.51,6.271-1.722,4.838-4.316,7.219-4.664,10.374-1.548,2.265,2.206,4.1,6.019,4.1,8.458,0,5.806,6.967,5.439,15.348-.794,8.825-6.58,26.5-6.348,41.147.523l11.767,5.535-5.613,13.141c-5.361,12.561-11.67,16.664-15.715,10.219-1.045-1.645-8.129-3.077-15.773-3.193-10.509-.135-14.767,1.49-17.631,6.716-2.439,4.509-6.058,6.329-10.374,5.225-3.639-.948-7.471-.329-8.535,1.374-1.065,1.684-5.748,3.077-10.374,3.077-5.206,0-8.458,1.955-8.458,5.109,0,2.807-2.71,5.11-6.038,5.148a64.219,64.219,0,0,0-12.967,1.819C716.029,1178.9,710.165,1176.38,703.875,1170.593ZM606.563,1127.8c-12.29-11.9-23.263-25.47-24.347-30.154-1.742-7.451.232-9.716,16.2-18.464,23.283-12.774,54.675-20.554,54.675-13.528,0,2.632,1.161,4.548,2.593,4.239,5.226-1.142,21.5,4.761,19.954,7.219-.871,1.413,2.013,5.883,6.426,9.967,7.1,6.561,8.516,6.813,12.406,2.187,3.89-4.606,6.426-4.122,22.122,4.122,25.354,13.315,28.063,17.883,14.283,24.057-4.761,2.129-8.651,5.941-8.651,8.477,0,5.806-15.348,14.109-20.4,11.051-2.09-1.277-3.793-.716-3.793,1.239,0,4.335-25.16,2.38-39.656-3.077-8.051-3.039-11.032-2.9-13.838.58C632.323,1151.007,630.059,1150.543,606.563,1127.8Zm217.655-5.148c-16.122-9.193-34.934-10.258-46.043-2.594-7.393,5.09-8.206,4.9-14.941-3.542-5.5-6.871-8.206-8.052-11.787-5.129-3.561,2.9-5.671,2.071-9.154-3.561-5.593-9.135-53.127-33.676-50.088-25.857,3.213,8.206-2.942,9.464-9.813,1.994-4.529-4.916-4.935-6.716-1.49-6.716,7.393,0-1.065-6.716-10.78-8.535-4.626-.871-10.122-3.91-12.232-6.735s-5.3-5.129-7.084-5.129c-1.8,0-3.252-5.109-3.252-11.341,0-18.057-8.825-49.295-15.638-55.352-5.593-4.993-5.729-6.522-1.3-14.941,3.522-6.735,4.045-12.406,1.839-20.012-3.542-12.116-2.555-12.928,26.4-22.238,9.851-3.155,19.548-7.684,21.56-10.084,5.3-6.29,39.85-17.148,46.527-14.632,3.116,1.161,5.651,5.09,5.651,8.709,0,7.78,18.406,15.367,27.134,11.187,7.935-3.774,86.3-2.632,89.958,1.335,3.29,3.561,14.283,45.54,14.283,54.54,0,3.155-4.18,9.542-9.309,14.206-9.232,8.438-9.251,8.554-2.381,14.032,5.168,4.122,6.832,9.309,6.542,20.457a67.4,67.4,0,0,0,6.445,28.508c5.9,11.748,6.135,14.07,1.761,17.341-2.768,2.09-11.709,10.954-19.838,19.722-13.006,13.993-14.322,16.838-10.838,23.244,5.477,10.064,3.813,10.219-12.135,1.123Zm-419.692-16.1c-4.006-4.2-7.277-10.451-7.277-13.9,0-5.845-.426-5.884-6.329-.619-6.716,5.961-11.225,7.277-10.548,3.077,1.258-7.9-1.471-11.767-10.451-14.844-5.5-1.9-10.838-6.542-11.845-10.335-1.374-5.187-3.619-6.348-9-4.664-5.458,1.7-7.142.755-7.142-3.987,0-8.826,12.27-15.7,20.4-11.419,4.7,2.478,9.987,1.665,19.8-3.058,7.625-3.658,13.916-4.993,14.612-3.077.677,1.839,4.955,4.742,9.5,6.445,5.709,2.148,8.284,5.768,8.284,11.69,0,5.264,1.955,8.593,5.071,8.593,7.006,0,12.522,11.032,8.574,17.186-1.742,2.69-3.232,3.387-3.329,1.51-.077-1.877-1.761-.7-3.716,2.613-1.955,3.329-2.651,8.884-1.529,12.367,3.116,9.619-6.7,11.187-15.077,2.419Zm17.922-2.09c-.406-5.613.581-10.2,2.168-10.2,5.4,0,10.78,9.309,8.612,14.864-3.542,9.077-10.006,6.271-10.78-4.664ZM153.757,1078.1c18.16-23.825,23.411-27.947,35.662-28.005,11.554-.058,17.225-4.335,24.831-18.754,3.1-5.864,2.961-6.058-.929-1.413-2.477,2.961-8.129,7.3-12.561,9.619-6.813,3.562-8.729,3.329-12.29-1.451-2.322-3.116-6.464-5.284-9.232-4.819-2.748.445-7.742-.348-11.092-1.781a11.366,11.366,0,0,0-11.237,1.568c-2.828,2.322-5.258,3.639-5.4,2.942-3.054-15.057-2.775-15.715,8.131-18.735,7.631-2.11,13.045-6.813,17.179-14.922,3.561-6.948,4.606-12.29,2.574-12.967a2.728,2.728,0,0,1-1.51-4.258c1.064-1.7-.523-3.1-3.561-3.1-4.44,0-4.792-1.335-1.812-6.813,4-7.335,22.036-9.58,26.043-3.232,1.529,2.439,3.735,2.342,7.006-.348,4.064-3.31,3.987-4.684-.426-9.019-3.174-3.135-4.026-6.638-2.206-9.019,5.051-6.542,3.039-24.289-2.748-24.289-10.935,0-13.1-16.025-3.464-25.509,6.909-6.813,6.909-6.813-1.723-6.813-4.761,0-8.651,1.374-8.651,3.039,0,5.013-10.916,7.548-15.708,3.639-3.323-2.71-4.753-2.129-5.613,2.264-1.092,5.574-1.471,5.574-7.167-.039-5.711-5.613-5.671-6.561.84-19.122,4.4-8.5,5.574-13.993,3.279-15.386-1.964-1.2-2.551-5.342-1.3-9.193,1.723-5.361,1.028-6.58-2.9-5.09a9.393,9.393,0,0,1-9.042-1.858c-2.868-2.826-3.942-2.535-4.122,1.1-.147,3-1.335,2.245-3.01-1.858-1.823-4.49-.509-11.457,3.846-20.418l6.613-13.606-8.452,9.851c-5.45,6.348-10.416,9.1-13.976,7.761-7.393-2.787-7.041-9.038.528-9.367,3.327-.155,4.18-1.026,1.895-1.935-3.079-1.239-2.63-4.9,1.728-14.187,3.236-6.89,7.44-13.644,9.34-15.019,1.953-1.413.824-2.516-2.591-2.555-9.029-.078-8.34-19.277.794-22.141,3.764-1.181,6.557-3.193,6.2-4.471-.35-1.3,1.233-7.7,3.52-14.244l4.159-11.922,22.48-.31c26.263-.368,28.566,3.445,10.316,17.148-6.7,5.013-11.3,10.509-10.238,12.212,1.084,1.684-.639,6.948-3.774,11.67-6.435,9.658-3.855,10.664,8.883,3.5,9.329-5.245,43.411-6.909,46.333-2.264,3.542,5.632-14.69,43.043-23.651,48.482-12.754,7.761-15.251,11.109-6.251,8.4,13.141-3.987,8.613,3.232-5.09,8.109-12.406,4.413-12.58,4.684-4.684,7.567,4.49,1.626,10.8,2.148,14.012,1.161,8.09-2.535,28.412,11.767,31.392,22.083,1.335,4.664,4.2,14.825,6.329,22.547,2.942,10.683,6.387,15.057,14.361,18.309,15,6.116,17.98,13.509,9.542,23.747l-6.929,8.419,10.451,4.2c12.967,5.206,17.167,16.2,9.425,24.618-5.226,5.709-5.206,6.31.484,8.458,3.387,1.277,6.7.7,7.355-1.277,1.742-5.148,18.522-4.239,26.128,1.432,9.948,7.432,5.032,27.367-8.458,34.218-5.69,2.9-9.522,6.561-8.516,8.167,1.006,1.587-.6,3.813-3.561,4.916-8.38,3.174-2.264,8.884,9.5,8.884,9.193,0,10.006.716,6.135,5.3-7.916,9.387-18.444,13.141-37.876,13.528-38.263.774-45.346,1.587-43.2,4.993,2.381,3.813-7.954,2.98-14.748-1.181-6.755-4.142-16.664.445-20.96,9.716-3.406,7.355-4.916,7.935-12.135,4.7-6.418-2.884-10.639-2.5-18.938,1.723-15.578,7.935-16.389,6.871-5.576-7.316Zm260.776-29.321c-4.761-2.052-10.509-5.458-12.774-7.587-2.264-2.148-8.5-3.31-13.819-2.613l-9.716,1.277,9.929-4.606,9.948-4.606-10.413-2.032-10.412-2.052,8.245-16.044c4.548-8.825,8.264-18.077,8.264-20.573,0-2.477,1.645-4.529,3.658-4.529,2.148,0,2.981,4.277,2.032,10.238-2.148,13.451,8.767,20.554,18.386,11.98,5.148-4.587,5.555-6.968,2.322-13.858-2.168-4.568-5.09-8.322-6.522-8.322-5.574-.058-2.419-16.625,3.464-18.057,29.921-7.355,46.488,7.567,27.657,24.928-7.238,6.677-7.354,7.49-1.858,11.477,5.226,3.793,5.342,5.09.948,11.264-2.748,3.851-8.941,7.974-13.78,9.154-7.393,1.839-8.245,3.213-5.284,8.651a17.673,17.673,0,0,1,.948,13.045C423.551,1051.528,421.887,1051.953,414.532,1048.779Zm611.606-5.535c-1.084-2.806-6.5-5.419-12.057-5.787-5.535-.368-21.56-1.355-35.592-2.187-14.032-.852-26.476-3-27.657-4.819-6.174-9.406-66.481-11.419-76.448-2.555-7.761,6.909-13.915,4.335-11.477-4.781,1.122-4.258-.735-7.8-5.38-10.238-7.664-4.045-6.542-13.857,1.568-13.857,7.3,0,9.5-15.058,4.935-33.792-4.722-19.393-3.039-24.193,7.78-22.141,9.445,1.78,20.554-1.374,18.174-5.168-1.645-2.613,14.206-8.671,19.683-7.509,1.355.271,1.645-1.606.619-4.2-1.006-2.593-.174-5.729,1.858-6.968a9.175,9.175,0,0,0,3.7-7.142c0-5.38,12-18.5,16.915-18.5,4.548,0,7.49-9.58,3.348-10.935-2.3-.755-2.051-4.355.716-10.354,3.387-7.277,5.942-8.787,12.251-7.219,5.961,1.471,10.2-.5,16.664-7.722,4.761-5.342,8.709-7.819,8.767-5.555.058,2.284,2.439,3.271,5.3,2.187,2.845-1.064,5.187-.174,5.187,2.013s1.413,3.1,3.135,2.052c5.284-3.213,13.819,1.781,11.825,6.89-2.226,5.729,2.806,6.387,8.206,1.084,5.671-5.593,22.431,3.464,28.16,15.212,3.6,7.393,3.832,11.67.929,17.941-3.039,6.522,12.7,33.425,16.025,35.863,3.329,2.458,6.038,6.735,6.038,9.542a5.6,5.6,0,0,0,5.187,5.438c12.1.794,14.128,1.548,12.251,4.548a3.874,3.874,0,0,0,1.529,5.3c5.9,3.581,3.929,8.477-5.032,12.5-6.387,2.864-9.755,2.826-13.374-.116-5.922-4.838-14.767,3.619-10.645,10.18,1.413,2.284,3.677,10.026,5.013,17.206,2.187,11.748,1.626,13.257-5.5,15.019-10.877,2.69-18,11.3-19.431,23.457C1028.577,1044.367,1027.338,1046.36,1026.138,1043.244Zm-981.945-6.116a18.163,18.163,0,0,1,0-4.935c.224-1.413-1.239-2.555-3.251-2.555s-2.661-1.587-1.44-3.542c1.446-2.3-1.2-2.806-7.575-1.432l-9.8,2.109,8.074-6.464c4.573-3.658,7.571-9.213,6.915-12.832-.886-4.877,2.112-7.374,12.669-10.567,12.046-3.619,12.6-4.2,4.322-4.432-11.341-.31-12.772-8.4-2.593-14.651,10-6.155,8.516-9.406-4.322-9.464-6.18-.039-13.519-1.471-16.312-3.213-4.269-2.652-3.859-4.2,2.593-9.7,9.542-8.148,9.853-14.245.724-14.245-6.077,0-6.4-.852-2.624-6.813,4.827-7.606,14.976-9.058,17.651-2.535,1.378,3.348,1.8,3.329,2.017-.077.188-2.942,3.182-3.6,9.485-2.032,7.564,1.858,8.827,1.277,7.064-3.232-4.192-10.761,5.39-9.812,15.315,1.49l10.081,11.5,6.745-8.5c3.71-4.684,6.78-6.658,6.822-4.393s3.389,7.161,7.438,10.858c8.191,7.509,13.523,39.25,9.2,54.752-5.032,18.019-6.826,20.709-11.357,17.012-3.17-2.593-5.28-2.632-6.828-.174-1.233,1.955-4.914,3.561-8.183,3.561s-8.717,3.193-12.11,7.083c-3.391,3.91-8.3,6.29-10.916,5.3s-5.291-.194-5.951,1.742C66.6,1031.032,44.776,1040.515,44.194,1037.128ZM855.01,932.965c-1.722-3.832-6.406-8.535-10.412-10.471-5.826-2.826-6.7-5.109-4.335-11.38,3.793-10.122-3.368-17.515-16.993-17.515-12.793,0-20.148-8.206-23.07-25.683-1.9-11.5-1.045-14.845,5.187-20.4,6.309-5.613,11.671-6.5,34.353-5.671,14.767.523,30.483,1.645,34.9,2.477s9.29-.368,10.858-2.671c2.11-3.135,3.716-2.69,6.387,1.761,1.955,3.29,6.29,5.961,9.619,5.961,9.5,0,29.437,22.083,27.27,30.231-1.006,3.774-.039,7.567,2.129,8.458,2.168.871,1.239,1.7-2.09,1.858s-6.058,2.555-6.058,5.361a5.159,5.159,0,0,1-5.187,5.109c-3.116,0-5.187,3.135-5.187,7.858,0,9.019-11.612,22.76-19.257,22.76a8.13,8.13,0,0,0-7.006,4.722C883.074,943.513,858.784,941.345,855.01,932.965ZM118.552,934.3c-4.014-1.51-8.407-5.535-9.764-8.961-2.292-5.787-2.942-5.671-9.125,1.781L93,935.152l-6.478-7.858c-6.455-7.858-6.429-7.935,6.369-20.4,16.43-15.986,27.363-19.7,33.554-11.38,2.522,3.406,4.585,8.942,4.585,12.328S132.591,914,134.492,914c5.533,0,4,9.929-2.592,16.761-4.328,4.471-8.129,5.477-13.348,3.542Zm484.779-12.058c-2.864-7.354-1.529-8.69,4.877-4.8,3.7,2.245,4.026,4.084,1.219,6.851C606.621,927.043,605,926.5,603.331,922.243ZM68.115,906.3c2.239-2.651,3.325-5.555,2.413-6.464-.914-.89,4.647-5.109,12.358-9.387,7.709-4.258,14.879-6.89,15.932-5.864,1.053,1.045-1.07,6.929-4.717,13.1C89,906.3,84.76,909.16,75.756,910.011c-9.787.929-11.043.31-7.641-3.716Zm428.5-4.838c-3.987-1.045-6.038-4.9-6.038-11.4,0-5.922-2.439-11.109-6.135-13.064-5.129-2.709-6.058-7.7-5.806-31.218.271-24.87,1.2-28.7,8.245-34.3,4.355-3.484,11.012-6.31,14.787-6.31s11.458-4.838,17.07-10.741c13.548-14.264,20.031-9.29,13.451,10.335-5.768,17.186-2.535,31.005,7.277,31.005,6.116,0,6.58.813,2.9,5.187-2.419,2.845-5.187,4.393-6.154,3.426-3.31-3.251-10.683,5.439-8.767,10.335,1.181,3.019-.29,4.858-3.871,4.858-3.155,0-4.8,1.529-3.619,3.406s.1,3.406-2.381,3.406c-3.039.019-4.568,5.032-4.626,15.309-.039,8.419,1.51,15.309,3.464,15.348,1.955.019,1.219,1.529-1.645,3.348-5.439,3.464-8.187,3.619-18.154,1.065Zm67.565-9.425c-6.1-4.277-10.258-8.613-9.232-9.619,1.026-1.026.213-4.877-1.8-8.593-3.252-5.98-1.839-7.606,12.328-14.148,12.851-5.942,16.567-6.5,18.89-2.9,4.084,6.329,3.735,17.244-.464,14.709-1.916-1.181-4.49.426-5.69,3.542-1.219,3.1-.31,6.813,2.032,8.245,3.135,1.9,2.69,3.174-1.606,4.8-4.761,1.8-5.071,3.155-1.606,7.258C583.183,902.618,577.048,901.05,564.178,892.031Zm223.268,5.3a29.378,29.378,0,0,0,7.722-7.587c2.206-3.426,3.019-2.652,3.058,3,.039,5.69-1.935,7.625-7.742,7.587-5.729-.039-6.522-.813-3.039-3ZM640.82,893.367c-3.716-5.922.523-7.18,5.264-1.567,2.729,3.232,2.981,5.187.7,5.187A8.082,8.082,0,0,1,640.82,893.367Zm-41.2-13.141c-1.258-2.013-1.49-4.9-.523-6.425.967-1.548-1.258-7.664-4.935-13.606-3.677-5.961-5.148-10.819-3.271-10.819,4.258,0,4.509-21.309.29-25.683-6.677-6.89-29.031-54.036-33.54-70.7-5.671-20.96-6.484-37.3-1.471-29.5,5.574,8.671,12.232-1.916,11.864-18.832-.174-8.341,1.142-15.135,2.961-15.135s2.5-2.032,1.548-4.509c-.968-2.458,1.045-6.213,4.471-8.322,7.8-4.78,11.593-26.147,7.238-40.74-2.535-8.516-2.264-11.051,1.239-11.051,3.89,0,8.613-9.6,8.748-17.864.039-1.394-3.445-6-7.722-10.2-5.942-5.845-7.935-12.077-8.458-26.36-.387-10.3-.948-22.528-1.277-27.212-.31-4.664-.329-13.083-.019-18.7s.445-12.5.29-15.309c-.89-17.9,9.387-38.979,20.709-42.521,3.484-1.084,10.3-.987,15.174.213,7.18,1.781,9.58.6,12.735-6.232,4.064-8.748-.348-22.9-7.122-22.9-1.722,0,1.394-9.561,6.967-21.251,7.626-16.044,10.335-27.192,11.051-45.443.929-23.631,1.181-24.251,11.322-27.212,7.916-2.3,10.374-5.032,10.412-11.516.019-4.684,4.065-14.632,8.961-22.1,17.225-26.283,17.961-24.7,11.98-33.657-6.7-10.045-6.774-11.806-.5-11.806,2.69,0,6.774-5.729,9.077-12.754,2.284-7.006,6.464-15.348,9.29-18.522,4.568-5.168,5.98-5.245,12.832-.832,7.142,4.606,7.974,4.335,11.709-3.735,2.206-4.78,4.026-13.974,4.026-20.419,0-6.464,1.548-11.748,3.465-11.748a3.432,3.432,0,0,1,3.445,3.406c0,1.858,3.193,3.387,7.083,3.387,3.91,0,11.961,2.477,17.9,5.5,10.161,5.187,11.109,5.129,15.5-.794,2.845-3.832,3.329-6.774,1.219-7.471-2.032-.658-1.161-4.626,2.09-9.522,4.451-6.7,4.8-10.083,1.722-16.761-3.1-6.658-2.922-8.357.871-8.357,2.593,0,5.593,2.2,6.638,4.873,1.045,2.69,13.122,12.638,26.844,22.122,33,22.8,42.5,36.6,41.514,60.365-.406,9.948.755,18.077,2.574,18.077s2.555,2.884,1.606,6.406c-.929,3.522.658,6.987,3.523,12.445,4.1,7.8,4.49,13.258,1.8,25.605-2.284,10.509-2.226,19.993.174,28.741,1.974,7.18,3.619,14.457,3.677,16.18.155,4.722-22.992,3.716-29.108-1.277-3.91-3.193-5.361-3.29-5.361-.368,0,2.226-1.568,3.077-3.464,1.935-2.013-1.239-3.464,2.129-3.464,8.013,0,6.774-3.348,13.219-10.161,19.548-5.593,5.187-9.348,10.741-8.341,12.348,1.006,1.587-.987,7.045-4.432,12.1-7.1,10.49-6.716,17.535,1.335,23.631,5.032,3.813,4.761,5.071-2.709,12.89-4.548,4.78-9.89,13.528-11.864,19.47-2.516,7.606-8.67,13.683-20.863,20.631-15.793,8.98-46.682,41.63-46.682,49.333,0,1.761-3.987,5.787-8.864,8.922-6.639,4.277-7.955,6.832-5.206,10.084,2.671,3.155,1.723,9.948-3.387,24.444-5.477,15.5-6.58,24.464-4.877,39.4,2.032,17.593,3.1,19.548,11.69,21.406,9.909,2.148,34.857,30.657,34.857,39.85,0,2.768-4.258,6.948-9.483,9.29-8.845,3.968-9.058,4.529-3.252,8.709,6.716,4.819,2.013,10.819-5.09,6.5-2.206-1.335-3.058-.948-1.9.91,1.142,1.819-.852,5.787-4.451,8.806-4.664,3.929-6.987,4.335-8.187,1.452-1.026-2.5-1.761-2.09-1.916,1.064-.135,2.806-4.993,8.961-10.8,13.644-9.348,7.548-10.761,11.129-12.27,30.618-.929,12.135-2.632,25.122-3.793,28.857a96.051,96.051,0,0,0-2.806,17.844c-.368,6.077-3.542,17.3-7.064,24.948-6.329,13.819-6.464,13.9-21.27,11.709-12.348-1.819-14.9-1.258-14.9,3.31,0,3.039-1.374,4.684-3.058,3.658-4.761-2.9-10.954,6.5-9.948,15.1.658,5.574-1.026,7.954-6,8.516a55.03,55.03,0,0,0-12.619,3.155c-3.135,1.3-6.735.735-7.993-1.258Zm320.231-22.238c-5.9-6.6-13.335-12.019-16.509-12.019s-7.722-2.613-10.1-5.826c-3.232-4.336-5.516-4.877-9.019-2.129-2.594,2.032-7.026,3.309-9.89,2.864-2.845-.445-16.683-1.781-30.734-2.942-22.141-1.858-27.1-1.2-37.16,4.935l-11.612,7.064.019-9.638c0-5.3,2.342-14.012,5.187-19.373,2.826-5.361,5.187-13.006,5.206-17.012.077-9.871,3.309-13.548,15.5-17.593,9.193-3.058,11.264-2.4,18.154,5.632,4.277,4.993,7.78,10.722,7.78,12.735,0,1.993,3.116,5.284,6.909,7.277,13.935,7.335,29.921-9.348,25.973-27.057-1.877-8.38-.716-10.374,8.709-15,12.27-6.019,19.315-3.271,33.908,13.238,5.845,6.619,9.038,7.9,13.548,5.4,4.161-2.284,8.806-1.568,15.657,2.419,8.671,5.032,9.561,7.122,7.935,18.6-1.026,7.219-.484,12.077,1.258,11.032,1.7-1.045,4.9,3.484,7.1,10.045,3.58,10.664,3.135,13.006-4.045,22.063-5.4,6.793-10.277,9.638-14.845,8.632-3.716-.832-9.348.794-12.5,3.581-5.148,4.587-6.774,3.91-16.432-6.929ZM725.667,794.8c0-9.774,13.567-27.057,21.251-27.057,5.071,0,3.213,6.929-2.419,9.058-3.155,1.181-4.955,5.168-4.374,9.619,1.026,7.625-5.768,18.754-11.419,18.754C727.042,805.171,725.667,800.487,725.667,794.8ZM923.949,780.61c-9.251-11.264-24.909-20.38-29.844-17.341-9.232,5.671-13.586,4.084-11.941-4.355,1.7-8.806-3.542-15-7.451-8.787-2.826,4.509-7.645,1.355-13.374-8.729-3.5-6.155-3.5-7.664,0-7.722,2.69-.019,3.019-1.006.89-2.535-1.9-1.374-3.967-6.058-4.587-10.413-.794-5.671.91-8.419,6.058-9.754,3.948-1.006,7.18-2.942,7.18-4.3,0-4.316,17.844-10.645,24.309-8.613,3.406,1.064,7.084.542,8.148-1.142,2.322-3.7,14.032-2.632,27.405,2.477,5.342,2.052,16.528,3.735,24.85,3.735h15.135l-8.4,14.438c-8.864,15.29-11.012,35.766-4.9,47.011,2.787,5.129,2.09,8.167-3.193,13.741-3.735,3.929-8.516,6.1-10.645,4.8s-5.98-.639-8.554,1.471c-3.619,2.942-6.155,2.032-11.09-3.987ZM440.138,761.43c1.006-1.606-4.355-7.8-11.9-13.761-8.574-6.774-13.7-13.664-13.664-18.348.039-6.077.677-6.522,3.387-2.381,2.632,4.006,3.368,4.1,3.406.426.058-3.91,1.045-3.929,6.116-.116,3.329,2.516,4.838,3.155,3.348,1.452-1.49-1.723.852-5.129,5.187-7.567,7.587-4.3,7.49-4.374-2.5-2.458-7.916,1.529-9.135,1.142-5.187-1.626,2.864-1.993,3.639-3.7,1.742-3.774-1.916-.1-.445-2.419,3.252-5.148,4.839-3.6,5.322-5.032,1.723-5.109-3.755-.078-3.445-1.258,1.258-4.761,4.413-3.29,4.955-5.071,1.877-6.077-5.709-1.858-24.251,7.258-22.025,10.819.948,1.51-1.355,3.542-5.148,4.529-8.167,2.09-9-2.381-1.568-8.516,2.923-2.419,7.393-6.232,9.967-8.477,2.555-2.245,5.4-3.368,6.29-2.477.91.89,3.813-.987,6.464-4.2,4.2-5.051,4.1-5.555-.677-3.793a13.424,13.424,0,0,1-10.374-1.006c-2.69-1.664-3.174-3.058-1.1-3.1,2.071-.019,5.748-4.258,8.187-9.406,4.161-8.767,3.542-12.386-1.026-8.167-7.916,7.335-8.38,7.374-10.025,1.18a18.524,18.524,0,0,1,1.471-12.1c3.406-6.019.7-13.587-3.89-10.8-1.51.91-5.419-1.239-8.709-4.8-5.748-6.251-5.4-6.542,10.78-8.767,26.651-3.677,10.1-6.6-1.413-6.426-20.67.329-23.36-2.768-6.929-7.954,10.335-3.251,10.548-3.581,2.593-4.122-7.974-.542-8.109-.813-1.722-3.5,3.793-1.606,4.877-3.039,2.381-3.174-2.477-.135-3.561-1.761-2.381-3.638s-.484-3.406-3.677-3.406c-4.78,0-5.051-.91-1.51-5.09,5.729-6.793,12.677-6.445,17.012.851,1.935,3.271,3.561,4.122,3.619,1.9.058-2.245,2.961-3.522,6.464-2.864,3.484.658,8.535-.155,11.225-1.839,5.729-3.561,4.335-3.852-30.966-6.232-3.91-.271-3.948-1.258-.252-5.632,3.019-3.6,7.393-4.626,13.374-3.174,7.045,1.723,8.032,1.3,4.7-2.032-3.29-3.31-2.922-5.148,1.742-8.632,9.425-7.064,14.554-5.419,14.67,4.7.116,8.864.368,9.019,5.109,2.864,4.432-5.767,4.2-7.142-2.129-12.541-3.91-3.329-9.309-5.226-12-4.2-2.71,1.006-4.916-.058-4.916-2.4,0-3.116,5.3-3.735,19.876-2.38,10.935,1.006,16.877.735,13.219-.639-8.942-3.329-.387-6.716,13.277-5.226,7.277.774,8.806.058,5.922-2.768-5.709-5.613-4.761-10.819,1.1-6.038,4.084,3.348,4.9,2.806,4.451-2.981-.31-3.89-2.942-7.18-5.864-7.335-2.923-.136-.716-1.916,4.9-3.91,12.348-4.413,26.3-16.219,19.18-16.219-3.155,0-2.516-1.645,1.916-4.819,7.258-5.226,12.716-1.181,9.5,7.064-1.181,3.019.948,4.529,6.367,4.49,6.522-.039,7.122-.7,2.961-3.348-3.948-2.5-2.477-3.31,6.038-3.348,8.787-.039,11.245-1.49,11.245-6.619a9.728,9.728,0,0,1,6.542-8.612c4.3-1.355,6.368-4.916,6.058-10.432-.6-10.258-5.768-10.664-16.548-1.3-5.9,5.129-6.484,6.561-2.11,5.206,9.348-2.9,7.161,3.116-2.748,7.568-12.387,5.535-17.206,5.071-11.941-1.161,3.561-4.219,3.193-5.11-2.168-5.148-5.187-.058-5.5-.677-1.548-3.135,2.709-1.684,5.477-6.522,6.116-10.722,1.51-9.638,7.335-16.7,13.78-16.7,2.748,0,4.006-1.529,2.845-3.406-1.181-1.877-.581-3.406,1.355-3.406,1.916,0,4.722,2.148,6.251,4.761,2.361,4.064,3.406,4.064,7.219,0,2.458-2.613,3.232-4.858,1.723-4.993-1.49-.135.387-1.548,4.181-3.174,6.367-2.671,6.232-2.942-1.723-3.271l-8.632-.348,8.148-6.7c4.49-3.677,6.909-6.677,5.38-6.677s2.361-3.735,8.651-8.3c6.309-4.568,13.877-11.845,16.857-16.161,5.3-7.684,5.284-7.722-1.471-1.955-5.322,4.568-7.838,4.993-10.993,1.877-7.18-7.045-4.993-13.606,3.638-10.916,6.89,2.148,7.238,1.8,3.039-3.174-3.832-4.529-3.91-7.471-.445-15.7,3.755-8.961,5.11-9.7,11.651-6.329,7.045,3.639,7.122,3.522,1.664-2.632-5.09-5.729-5.148-6.948-.5-11.167,4.026-3.619,5.826-3.755,7.838-.581,1.858,2.961,5.38,1.664,12.6-4.684l10.006-8.825-8.651.581a149.828,149.828,0,0,1-16.664.058c-6.638-.426-7.238-1.3-3.464-4.974a39.56,39.56,0,0,1,11.38-6.987c5.729-2.129,6-3.039,1.742-5.709-4.161-2.574-3.813-3.213,1.819-3.445,6.909-.29,6.909-.29,0-3.213s-6.909-2.922,0-3.213c5.438-.232,5.864-.948,2.032-3.348-4.122-2.555-3.987-3.91.871-8.69,3.155-3.1,5.787-4.393,5.845-2.845.058,1.529,1.684.135,3.6-3.116,3.716-6.29,18.967-7.18,26.554-1.568,3,2.226,4.316,5.419,4.316,1.626,0-5.071-4.742-7.122-22.431-9.754-6.561-.968-6.484-1.393,1.51-9.271,5.264-5.187,8.9-6.755,9.754-4.219a6.646,6.646,0,0,0,5.98,4.045c2.535,0,5.129,1.49,5.768,3.29.619,1.819,2.942-.484,5.129-5.09,3.735-7.838,3.464-8.225-4.316-6.309-6.29,1.548-8.3.658-8.3-3.619,0-3.116,1.239-4.916,2.748-4.006,1.529.929,4.761.464,7.2-1.026,3.484-2.11,3.271-3.135-.91-4.722-2.961-1.123-6.29-.561-7.413,1.219-2.923,4.664-12.851,4.045-11.245-.7,1.568-4.606,10.316-7.084,25.9-7.3,11.128-.155,17.748-6.967,10.858-11.167-2.439-1.49-2.11-3.193.987-5.071,3.735-2.264,3.793-3.677.329-7.084s-2.768-5.109,3.484-8.535c6.309-3.445,6.638-4.277,1.761-4.393-3.329-.058-6.038-1.606-6.038-3.445,0-4.18,25.238-17.051,33.56-17.128,5.264-.039,5.419-.542,1.006-3.348-2.845-1.819-3.639-3.348-1.723-3.406,1.9-.058,1.219-1.49-1.51-3.193-4.122-2.555-4.2-4.006-.445-8.444,2.5-2.948,6.677-5.361,9.29-5.361,3,0,4.761-3.834,4.761-10.4,0-5.754,1.471-9.507,3.31-8.394,1.819,1.105,2.439,4.639,1.394,7.852-1.239,3.8-.852,4.44,1.064,1.837,4.045-5.452,16.2-3.971,18.928,2.307,1.8,4.14,2.729,3.819,4.916-1.7a104.463,104.463,0,0,1,7.9-14.765,45.394,45.394,0,0,0,6.135-16.658c.522-4.78,2.729-10.38,4.935-12.443,4.7-4.42,1.2,29.106-4.219,40.465-3.193,6.693-3.174,6.695,2.129.2,2.942-3.631,5.361-8.6,5.361-11.053,0-5.388,1.684-5.514,11.477-.863,6.851,3.259,6.987,3.145,1.49-1.225-8.961-7.134-6.987-24.943,2.071-18.518.658.466,3.7-1.19,6.755-3.683,5.767-4.719,19.7-2.557,19.7,3.062a3.4,3.4,0,0,0,3.581,3.172c2.38,0,2.284-2.365-.271-7.068-2.109-3.888-3.019-9.2-1.993-11.8,1.006-2.6.349-5.63-1.471-6.737-4.045-2.468.329-1.608,3.194-1.608,2.129,0,25.9,8.781,22.528,14.3-2.168,3.542-1.645,3.577,2.613.18,2.922-2.322,6.329-3.215,7.587-1.984,3.174,3.122,2.826-.4-.987-10.289-2.516-6.489-2.071-8.889,1.935-10.4,2.864-1.082,4.393-3.282,3.367-4.891-1.006-1.608.29-5.769,2.865-9.249,4.18-5.6,5.4-5.758,10.761-1.378,5.5,4.49,5.845,4.287,3.755-2.2-1.471-4.552-.387-8.705,2.961-11.444,2.9-2.363,5.264-8.446,5.264-13.517,0-11.105,9.154-12.661,12.561-2.135,2.013,6.217,2.555,6.371,4.374,1.258,1.471-4.1,3.581-4.92,7.142-2.758,4.355,2.657,4.277,3.9-.639,9.236-5.148,5.6-11.129,17.881-12.948,26.559A20.247,20.247,0,0,1,891.26,79.9c-1.839,2.191-1.974,7.109-.29,11.558,2.845,7.567,3.058,7.482,9.851-3.813,3.832-6.358,11.4-20.451,16.838-31.323S928.788,35.8,930.317,34.869c4.432-2.69,3.232,10.517-1.355,15.034-3.135,3.077-3.155,4.082-.1,4.082,2.671,0,3.367,3.482,2.013,10.07-1.955,9.687-1.722,9.923,6.426,6.139,6.058-2.806,8.477-6.683,8.477-13.534,0-5.524,2.806-11.636,6.619-14.4,6.193-4.482,6.232-4.949.581-7.1-3.329-1.27-6.039-3.292-6.039-4.494,0-3.42,21.909-4.043,27.231-.776,6.251,3.846,1.877,10.492-6.909,10.492-3.91,0-5.942,1.537-4.684,3.551,1.239,1.951.155,6.029-2.381,9.06-4.142,4.945-3.832,5.092,3.155,1.43,8.632-4.523,9.5-3.159,4.2,6.59-1.974,3.617-2.361,6.555-.871,6.526,6.019-.116,10.567-5.677,14.593-17.8,4.142-12.5,14.051-17.821,14.051-7.546,0,2.864,2.729,6.2,6.058,7.4s7.2,3.838,8.593,5.845c1.723,2.475,2.555,2.317,2.594-.5.02-2.311,2.381-3.263,5.322-2.154,4.335,1.639,4.49,2.938.871,7.333-3.793,4.577-3.484,4.993,2.168,2.913,4.49-1.661,8.69-.178,13.3,4.689,3.716,3.915,6.193,7.455,5.535,7.869s-7.684,5.015-15.6,10.225c-14.012,9.245-14.632,9.338-25.451,3.838-15.677-7.978-22.567-.937-7.374,7.546,6,3.354,10.219,7.935,9.367,10.178-.929,2.437.465,3.317,3.445,2.187,5.613-2.121,6.929,4.07,1.548,7.339a7.61,7.61,0,0,0-3.445,5.719c0,2.2,2.129,1.877,5.439-.832,4.529-3.687,6-3.613,8.593.434,5.361,8.322,3.638,13.018-6.716,18.282-5.651,2.874-10.973,9.015-12.29,14.183-1.645,6.46-3.406,8.057-6.019,5.483s-1.529-6.627,3.755-13.923c10.18-14.066,6.813-24.51-13.257-41.034L965.483,91.8l-10.141,6.631c-5.574,3.646-16.122,8.247-23.457,10.223-7.316,1.976-12.483,4.4-11.5,5.38,1.006.985-1.278,8.9-5.052,17.593-4.548,10.412-6.193,19.5-4.819,26.635,1.7,8.971.813,11.221-5.167,13.079-3.968,1.239-8.651,5.961-10.393,10.471-3.813,9.909-5.613,10.045-18.657,1.587-10.025-6.484-10.238-6.484-19.625.077-13.006,9.116-23.051,4.1-35.534-17.748-8.632-15.088-10.78-16.828-18.464-14.93-4.78,1.183-10.954,4.368-13.722,7.084a19.286,19.286,0,0,1-11.671,4.933c-7.78,0-7.9.443-2.864,11.312,2.884,6.232,2.71,10.2-.7,16.315-2.5,4.451-4.1,10.761-3.6,14.032s.1,5.961-.91,5.961c-2.032,0-24.56-9.329-34.179-14.148-9.1-4.548-12.812-.639-12.87,13.49-.077,17.457-4.684,23.96-13.277,18.715-5.535-3.348-7.78-2.787-13.548,3.406-3.793,4.1-8.032,11.264-9.406,15.948a32.419,32.419,0,0,1-9.464,13.935c-6.677,5.206-6.716,5.806-1.045,14.341,5.787,8.671,5.651,5.535-4.974,23.786-5.98,10.3-12.425,19.664-14.283,20.806-1.858,1.123-2.381,5.187-1.142,9,2.477,7.7-3.039,12.754-14.07,12.832-6.232.058-6.987,2.613-7.722,26.167-.658,20.554-2.961,30.579-10.858,47.185-9.774,20.535-9.851,21.212-3.5,26.573,11.206,9.445,6.1,25.063-6.871,21-19.528-6.1-39.772,18.038-38.4,45.791.135,2.806,0,9.7-.31,15.309-.29,5.613-.29,14.032.039,18.7.31,4.684.89,17.206,1.258,27.851.542,15.116,2.38,20.883,8.458,26.476,4.277,3.948,7.78,8.516,7.78,10.161,0,6.89-4.529,13.741-9.077,13.741-3.658,0-4.219,2.323-2.226,9.348,5.264,18.5,2.381,38.843-6.445,45.52-4.49,3.406-6.813,6.232-5.167,6.271,1.664.039,1.2,2.226-1.007,4.858-2.226,2.632-3.1,8.4-1.974,12.832s.523,11.845-1.355,16.49c-2.148,5.264-3.5,6.329-3.639,2.826-.116-3.058-4.1-6.541-8.864-7.7-8.748-2.168-9.813-5.071-9.174-24.967.213-6.077-.968-11.051-2.593-11.051-6.464,0-10.083,9.212-8.4,21.425,1.781,13.045-3.619,24.483-9.793,20.728-1.8-1.084-6.077,1.239-9.522,5.148s-8.129,7.1-10.393,7.1-3.135,1.587-1.935,3.5c2.284,3.619-18.715,25.179-21.677,22.276-.929-.91-3.929.58-6.7,3.29-5.264,5.187-33.928,7.084-30.754,2.032Zm-1.006-200.043c-4.064-6.89-5.051-4.684-1.723,3.871,1.181,3.038,2.884,4.8,3.774,3.929S441.144,564.794,439.131,561.387ZM836.295,94.8c2.865-1.813,3.639-3.3,1.742-3.3-1.916,0-5.806,1.483-8.651,3.3s-3.638,3.3-1.723,3.3c1.9,0,5.787-1.484,8.632-3.3ZM822.476,750.708c0-4.2,3.1-7.413,8.438-8.729,11.709-2.884,18.057,1.471,9.967,6.851-12.561,8.322-18.406,8.922-18.406,1.877Zm9.116-22.741c-3.89-3.813-2.361-7.838,2.981-7.838,2.845,0,5.187,1.452,5.187,3.213,0,4.277-5.4,7.354-8.167,4.626Zm12.774-53.978c-1.064-2.748-1.123-7.993-.155-11.671,1.49-5.613.755-6.154-4.567-3.348-9.851,5.187-18.251,4.18-15.87-1.9,1.2-3.058.271-5.032-2.226-4.722-2.342.271-7.509-.542-11.5-1.819-5.864-1.9-7.045-4.684-6.251-14.825.542-6.89,1.258-13.277,1.587-14.206a9.673,9.673,0,0,0,.329-3.871c-.155-1.2,1.161-7.1,2.942-13.161,2.381-8.187,1.839-13.567-2.11-21.1-2.922-5.555-4.451-12.329-3.387-15.038,1.045-2.71.116-11.554-2.071-19.625-3.638-13.354-3.31-15.406,3.5-22.605,4.142-4.355,7.122-10.316,6.638-13.238-.581-3.542,2.322-5.671,8.748-6.387,5.284-.6,9.212-2.9,8.748-5.109-1.568-7.258,9.154-26.147,16.044-28.315,8.729-2.71,11.709-5.922,25.876-27.87,15.445-23.941,20.322-28.412,28.334-25.915,6.019,1.877,6.445.736,4.606-12.638-3.542-25.683-4.935-29.515-11.38-31.528-19.722-6.155-31.024-32.515-25.276-58.991,2.671-12.328,2.284-17.806-1.8-25.567-2.9-5.535-4.277-9.6-3.116-14.148,1.219-4.78.542-8.148-1.626-8.148-2.206,0-3.387-6.522-2.942-16.219,1.026-22.064-11.051-39.327-42.114-60.21-25.721-17.283-38.379-31.8-23.747-27.231,6.135,1.914,7.3,1.312,5.651-2.905-1.355-3.468.368-6.081,4.916-7.505,3.851-1.2,7.432-1.662,7.974-1.024.522.639,5.071,8.185,10.122,16.776,12.019,20.515,23.689,26.031,36.172,17.07,9.1-6.522,9.193-6.5,23.593,1.781l14.438,8.342,2.206-9.89a20.373,20.373,0,0,1,10.954-13.78c7.471-3.368,8.4-5.419,6.425-14.281-3-13.37,10.354-47.363,18.6-47.388,3.116-.01,11.806-3.681,19.315-8.16l13.683-8.142,14.516,11.7c18.154,14.645,21.367,25.325,11.612,38.785-3.987,5.5-6.213,11.643-4.955,13.645s-.31,6.451-3.464,9.9c-3.793,4.122-4.49,7.006-2.051,8.477,2.593,1.587,2.613,4.239.019,8.98-2.09,3.851-2.69,13.064-1.374,21.638,1.819,11.98,4.122,15.657,11.709,18.754,5.206,2.11,12.677,9.406,16.644,16.238l7.2,12.387-11.728,22.876-11.709,19.025,10.18,24.309c14.5,34.566,17.825,47.65,12.638,49.6-8.5,3.213-9.542,48.075-1.239,54.036,3.58,2.574,4.858,6.735,3.561,11.593-1.374,5.187.31,9.716,5.342,14.341,9.677,8.845,9.309,15.27-1.239,22.083l-8.613,5.555,7.045,9.735a66.736,66.736,0,0,0,17.109,15.58c15.657,9.1,19.257,21.406,10.916,37.334-6.464,12.328-31.411,45.6-42.327,56.456-2.69,2.671-14.051,15.019-25.218,27.425-17.283,19.16-21.947,22.47-31.141,22.141-5.942-.232-15.774,2.129-21.851,5.226-6.077,3.077-14.3,5.613-18.27,5.613s-10.954,2.419-15.561,5.38c-4.587,2.961-11.922,5.884-16.3,6.5a157.9,157.9,0,0,0-19.373,4.645c-9.174,2.826-11.787,2.535-13.354-1.452Zm-14.98-4.219c0-1.839,2.458-4.258,5.477-5.4,3.368-1.258,4.955-.5,4.1,1.974-1.722,5.09-9.58,7.9-9.58,3.426ZM763.7,664.022a5.109,5.109,0,0,1,5.071-5.11c3.1,0,4.3,1.994,3.1,5.11-1.1,2.806-3.387,5.09-5.09,5.09C765.092,669.112,763.7,666.828,763.7,664.022ZM628.859,215.338c0-5.187,14.206-12.27,21.734-10.819,2.3.445,3.987-1.858,3.716-5.129-.271-3.29.794-5.961,2.361-5.961,1.548,0,3.329-3.329,3.929-7.393,1.374-9.154,9.716-12.483,9.851-3.948.116,5.884.387,5.9,4.664.348,4.761-6.174,9.058-4.7,9.058,3.058,0,4.509-6.367,11.748-18.948,21.541-6.019,4.684-6.329,4.568-4.026-1.51,2.477-6.445,2.361-6.464-4.529-.329-3.89,3.464-7.064,4.993-7.064,3.426,0-1.587-1.935-.523-4.316,2.381-6.426,7.838-16.432,10.471-16.432,4.335ZM644.4,191.281c5.535-8.322,5.5-8.458-1.471-4.78-5.264,2.768-7.161,2.768-7.161-.077,0-2.11,3.116-4.626,6.929-5.613,3.793-.987,7.064-3.5,7.258-5.632s1.49-.039,2.9,4.645,1.277,10.18-.31,12.212c-1.587,2.051-2.187,4.413-1.335,5.245s-1.607,1.761-5.477,2.051c-6.735.5-6.793.155-1.335-8.051Zm67-55.436c5.051-2.665,7.122-2.322,8.574,1.421,1.064,2.711.426,5.851-1.432,6.975s-2.613,3.246-1.684,4.713-2.245,4.422-7.026,6.567c-10.567,4.74-2.109-17.746,1.568-19.675Zm37.16-1.515c-2.69-10.507.5-19.126,7.064-19.126,3.677,0,4.742,3.35,3.948,12.491C758.318,142.348,751.621,146.376,748.563,134.33ZM728.28,123.708c.909-4.678,2.864-8.5,4.335-8.5,4.742,0,6.464,9.249,2.458,13.19-6.193,6.1-8.574,4.461-6.793-4.686Zm14.67-17.006c-3.522-4.179-3.29-5.1,1.316-5.1,3.077,0,5.632-1.912,5.651-4.252.039-3.008.948-2.849,3.135.542,3.29,5.108,1.3,13.914-3.135,13.914C748.447,111.8,745.312,109.508,742.951,106.7Zm118.969-50.6c-2.884-7.4-.871-9.394,5.574-5.479,3.948,2.4,4.142,3.971.871,7.186s-4.684,2.841-6.445-1.707Z" transform="translate(0)"/>
    </g>
  </g>
</svg>
